ISO-10303-21;
HEADER;
FILE_DESCRIPTION(('STEP AP242 Edition 2','STEP AP242 Edition 2''CAx-IF Rec.Pracs.---Representation and Presentation of Product Manufa
cturing Information (PMI)---4.0---2014-10-13','STEP AP242 Edition 2''CAx-IF Rec.Pracs.---Representation and Presentation of Product Manufa
cturing Information (PMI)---4.0---2014-10-13''CAx-IF Rec.Pracs.---3D Tessellated Geometry---0.4---2014-09-14','STEP AP242 Edition 2''CAx-IF Rec.Pracs.---Representation and Presentation of Product Manufa
cturing Information (PMI)---4.0---2014-10-13''CAx-IF Rec.Pracs.---3D Tessellated Geometry---0.4---2014-09-14''2;1','STEP AP242 Edition 2''CAx-IF Rec.Pracs.---Representation and Presentation of Product Manufa
cturing Information (PMI)---4.0---2014-10-13''CAx-IF Rec.Pracs.---3D Tessellated Geometry---0.4---2014-09-14''2;1''CAx-IF Rec.Pracs.---User Defined Attributes---1.5---2016-08-15'),'2;1');
/*name */
/*time_stamp */
/*author */
/*organization */
/*preprocessor_version */
/*originating_system */
/*authorisation */
FILE_NAME('Screwmount.step','2026-02-22T19:06:47',(''),(''),'','','');
FILE_SCHEMA(('AP242_MANAGED_MODEL_BASED_3D_ENGINEERING_MIM_LF { 1 0 10303 442 3 1 4 }'));
ENDSEC;
DATA;
#10=CONTEXT_DEPENDENT_SHAPE_REPRESENTATION(#12,#1026);
#11=NEXT_ASSEMBLY_USAGE_OCCURRENCE('NAUO1','Part 5','Part 5',#1027,#1028,'');
#12=(
REPRESENTATION_RELATIONSHIP(' ',' ',#612,#611)
REPRESENTATION_RELATIONSHIP_WITH_TRANSFORMATION(#13)
SHAPE_REPRESENTATION_RELATIONSHIP()
);
#13=ITEM_DEFINED_TRANSFORMATION(' ',' ',#613,#669);
#14=SHAPE_REPRESENTATION_RELATIONSHIP('','',#612,#15);
#15=ADVANCED_BREP_SHAPE_REPRESENTATION('',(#608),#1018);
#16=CONICAL_SURFACE('',#660,0.00475,0.785398163397448);
#17=CONICAL_SURFACE('',#662,0.0024,0.785398163397449);
#18=CONICAL_SURFACE('',#663,0.0024,0.785398163397449);
#19=CONICAL_SURFACE('',#666,0.0024,0.785398163397449);
#20=CONICAL_SURFACE('',#667,0.0024,0.785398163397448);
#21=CYLINDRICAL_SURFACE('',#628,0.00275);
#22=CYLINDRICAL_SURFACE('',#638,0.003);
#23=CYLINDRICAL_SURFACE('',#641,0.003);
#24=CYLINDRICAL_SURFACE('',#644,0.003);
#25=CYLINDRICAL_SURFACE('',#647,0.003);
#26=CYLINDRICAL_SURFACE('',#656,0.002);
#27=CYLINDRICAL_SURFACE('',#657,0.002);
#28=CYLINDRICAL_SURFACE('',#658,0.002);
#29=CYLINDRICAL_SURFACE('',#659,0.002);
#30=LINE('',#848,#90);
#31=LINE('',#851,#91);
#32=LINE('',#853,#92);
#33=LINE('',#855,#93);
#34=LINE('',#857,#94);
#35=LINE('',#860,#95);
#36=LINE('',#862,#96);
#37=LINE('',#864,#97);
#38=LINE('',#866,#98);
#39=LINE('',#868,#99);
#40=LINE('',#870,#100);
#41=LINE('',#874,#101);
#42=LINE('',#879,#102);
#43=LINE('',#883,#103);
#44=LINE('',#885,#104);
#45=LINE('',#887,#105);
#46=LINE('',#889,#106);
#47=LINE('',#891,#107);
#48=LINE('',#894,#108);
#49=LINE('',#896,#109);
#50=LINE('',#898,#110);
#51=LINE('',#900,#111);
#52=LINE('',#903,#112);
#53=LINE('',#905,#113);
#54=LINE('',#907,#114);
#55=LINE('',#909,#115);
#56=LINE('',#911,#116);
#57=LINE('',#913,#117);
#58=LINE('',#917,#118);
#59=LINE('',#922,#119);
#60=LINE('',#926,#120);
#61=LINE('',#928,#121);
#62=LINE('',#930,#122);
#63=LINE('',#932,#123);
#64=LINE('',#934,#124);
#65=LINE('',#937,#125);
#66=LINE('',#939,#126);
#67=LINE('',#941,#127);
#68=LINE('',#951,#128);
#69=LINE('',#955,#129);
#70=LINE('',#959,#130);
#71=LINE('',#963,#131);
#72=LINE('',#965,#132);
#73=LINE('',#966,#133);
#74=LINE('',#968,#134);
#75=LINE('',#969,#135);
#76=LINE('',#983,#136);
#77=LINE('',#984,#137);
#78=LINE('',#987,#138);
#79=LINE('',#988,#139);
#80=LINE('',#991,#140);
#81=LINE('',#993,#141);
#82=LINE('',#1000,#142);
#83=LINE('',#1001,#143);
#84=LINE('',#1003,#144);
#85=LINE('',#1005,#145);
#86=LINE('',#1007,#146);
#87=LINE('',#1009,#147);
#88=LINE('',#1011,#148);
#89=LINE('',#1013,#149);
#90=VECTOR('',#676,1.);
#91=VECTOR('',#677,1.);
#92=VECTOR('',#678,1.);
#93=VECTOR('',#679,1.);
#94=VECTOR('',#682,1.);
#95=VECTOR('',#683,1.);
#96=VECTOR('',#684,1.);
#97=VECTOR('',#685,1.);
#98=VECTOR('',#686,1.);
#99=VECTOR('',#687,1.);
#100=VECTOR('',#688,1.);
#101=VECTOR('',#691,1.);
#102=VECTOR('',#696,1.);
#103=VECTOR('',#699,1.);
#104=VECTOR('',#700,1.);
#105=VECTOR('',#701,1.);
#106=VECTOR('',#702,1.);
#107=VECTOR('',#705,1.);
#108=VECTOR('',#706,1.);
#109=VECTOR('',#707,1.);
#110=VECTOR('',#708,1.);
#111=VECTOR('',#711,1.);
#112=VECTOR('',#712,1.);
#113=VECTOR('',#713,1.);
#114=VECTOR('',#714,1.);
#115=VECTOR('',#715,1.);
#116=VECTOR('',#716,1.);
#117=VECTOR('',#717,1.);
#118=VECTOR('',#720,1.);
#119=VECTOR('',#725,1.);
#120=VECTOR('',#728,1.);
#121=VECTOR('',#729,1.);
#122=VECTOR('',#730,1.);
#123=VECTOR('',#731,1.);
#124=VECTOR('',#734,1.);
#125=VECTOR('',#735,1.);
#126=VECTOR('',#736,1.);
#127=VECTOR('',#737,1.);
#128=VECTOR('',#748,1.);
#129=VECTOR('',#751,1.);
#130=VECTOR('',#754,1.);
#131=VECTOR('',#757,1.);
#132=VECTOR('',#760,1.);
#133=VECTOR('',#761,1.);
#134=VECTOR('',#764,1.);
#135=VECTOR('',#765,1.);
#136=VECTOR('',#792,1.);
#137=VECTOR('',#793,1.);
#138=VECTOR('',#798,1.);
#139=VECTOR('',#799,1.);
#140=VECTOR('',#804,1.);
#141=VECTOR('',#807,1.);
#142=VECTOR('',#820,1.);
#143=VECTOR('',#821,1.);
#144=VECTOR('',#824,1.);
#145=VECTOR('',#827,1.);
#146=VECTOR('',#830,1.);
#147=VECTOR('',#833,1.);
#148=VECTOR('',#836,1.);
#149=VECTOR('',#839,1.);
#150=ORIENTED_EDGE('',*,*,#316,.T.);
#151=ORIENTED_EDGE('',*,*,#317,.F.);
#152=ORIENTED_EDGE('',*,*,#318,.T.);
#153=ORIENTED_EDGE('',*,*,#319,.T.);
#154=ORIENTED_EDGE('',*,*,#320,.T.);
#155=ORIENTED_EDGE('',*,*,#321,.T.);
#156=ORIENTED_EDGE('',*,*,#322,.T.);
#157=ORIENTED_EDGE('',*,*,#323,.T.);
#158=ORIENTED_EDGE('',*,*,#324,.T.);
#159=ORIENTED_EDGE('',*,*,#325,.T.);
#160=ORIENTED_EDGE('',*,*,#326,.T.);
#161=ORIENTED_EDGE('',*,*,#327,.T.);
#162=ORIENTED_EDGE('',*,*,#328,.T.);
#163=ORIENTED_EDGE('',*,*,#329,.T.);
#164=ORIENTED_EDGE('',*,*,#330,.T.);
#165=ORIENTED_EDGE('',*,*,#319,.F.);
#166=ORIENTED_EDGE('',*,*,#331,.T.);
#167=ORIENTED_EDGE('',*,*,#332,.F.);
#168=ORIENTED_EDGE('',*,*,#333,.T.);
#169=ORIENTED_EDGE('',*,*,#334,.T.);
#170=ORIENTED_EDGE('',*,*,#335,.T.);
#171=ORIENTED_EDGE('',*,*,#336,.F.);
#172=ORIENTED_EDGE('',*,*,#337,.T.);
#173=ORIENTED_EDGE('',*,*,#338,.T.);
#174=ORIENTED_EDGE('',*,*,#339,.T.);
#175=ORIENTED_EDGE('',*,*,#340,.T.);
#176=ORIENTED_EDGE('',*,*,#341,.F.);
#177=ORIENTED_EDGE('',*,*,#342,.T.);
#178=ORIENTED_EDGE('',*,*,#343,.T.);
#179=ORIENTED_EDGE('',*,*,#344,.T.);
#180=ORIENTED_EDGE('',*,*,#345,.F.);
#181=ORIENTED_EDGE('',*,*,#346,.T.);
#182=ORIENTED_EDGE('',*,*,#347,.T.);
#183=ORIENTED_EDGE('',*,*,#348,.T.);
#184=ORIENTED_EDGE('',*,*,#349,.T.);
#185=ORIENTED_EDGE('',*,*,#350,.T.);
#186=ORIENTED_EDGE('',*,*,#351,.T.);
#187=ORIENTED_EDGE('',*,*,#317,.T.);
#188=ORIENTED_EDGE('',*,*,#352,.T.);
#189=ORIENTED_EDGE('',*,*,#353,.F.);
#190=ORIENTED_EDGE('',*,*,#354,.T.);
#191=ORIENTED_EDGE('',*,*,#355,.T.);
#192=ORIENTED_EDGE('',*,*,#356,.T.);
#193=ORIENTED_EDGE('',*,*,#357,.F.);
#194=ORIENTED_EDGE('',*,*,#358,.T.);
#195=ORIENTED_EDGE('',*,*,#359,.T.);
#196=ORIENTED_EDGE('',*,*,#360,.T.);
#197=ORIENTED_EDGE('',*,*,#361,.T.);
#198=ORIENTED_EDGE('',*,*,#362,.T.);
#199=ORIENTED_EDGE('',*,*,#363,.T.);
#200=ORIENTED_EDGE('',*,*,#364,.T.);
#201=ORIENTED_EDGE('',*,*,#365,.T.);
#202=ORIENTED_EDGE('',*,*,#366,.T.);
#203=ORIENTED_EDGE('',*,*,#367,.T.);
#204=ORIENTED_EDGE('',*,*,#368,.T.);
#205=ORIENTED_EDGE('',*,*,#369,.T.);
#206=ORIENTED_EDGE('',*,*,#370,.T.);
#207=ORIENTED_EDGE('',*,*,#371,.T.);
#208=ORIENTED_EDGE('',*,*,#372,.T.);
#209=ORIENTED_EDGE('',*,*,#364,.F.);
#210=ORIENTED_EDGE('',*,*,#329,.F.);
#211=ORIENTED_EDGE('',*,*,#373,.T.);
#212=ORIENTED_EDGE('',*,*,#353,.T.);
#213=ORIENTED_EDGE('',*,*,#374,.T.);
#214=ORIENTED_EDGE('',*,*,#350,.F.);
#215=ORIENTED_EDGE('',*,*,#375,.T.);
#216=ORIENTED_EDGE('',*,*,#332,.T.);
#217=ORIENTED_EDGE('',*,*,#376,.T.);
#218=ORIENTED_EDGE('',*,*,#361,.F.);
#219=ORIENTED_EDGE('',*,*,#377,.T.);
#220=ORIENTED_EDGE('',*,*,#342,.F.);
#221=ORIENTED_EDGE('',*,*,#378,.T.);
#222=ORIENTED_EDGE('',*,*,#323,.F.);
#223=ORIENTED_EDGE('',*,*,#379,.T.);
#224=ORIENTED_EDGE('',*,*,#359,.F.);
#225=ORIENTED_EDGE('',*,*,#380,.T.);
#226=ORIENTED_EDGE('',*,*,#340,.F.);
#227=ORIENTED_EDGE('',*,*,#381,.T.);
#228=ORIENTED_EDGE('',*,*,#321,.F.);
#229=ORIENTED_EDGE('',*,*,#382,.F.);
#230=ORIENTED_EDGE('',*,*,#344,.F.);
#231=ORIENTED_EDGE('',*,*,#383,.T.);
#232=ORIENTED_EDGE('',*,*,#338,.F.);
#233=ORIENTED_EDGE('',*,*,#384,.F.);
#234=ORIENTED_EDGE('',*,*,#336,.T.);
#235=ORIENTED_EDGE('',*,*,#385,.T.);
#236=ORIENTED_EDGE('',*,*,#346,.F.);
#237=ORIENTED_EDGE('',*,*,#386,.F.);
#238=ORIENTED_EDGE('',*,*,#341,.T.);
#239=ORIENTED_EDGE('',*,*,#382,.T.);
#240=ORIENTED_EDGE('',*,*,#337,.F.);
#241=ORIENTED_EDGE('',*,*,#386,.T.);
#242=ORIENTED_EDGE('',*,*,#345,.T.);
#243=ORIENTED_EDGE('',*,*,#384,.T.);
#244=ORIENTED_EDGE('',*,*,#357,.T.);
#245=ORIENTED_EDGE('',*,*,#387,.T.);
#246=ORIENTED_EDGE('',*,*,#325,.F.);
#247=ORIENTED_EDGE('',*,*,#388,.T.);
#248=ORIENTED_EDGE('',*,*,#380,.F.);
#249=ORIENTED_EDGE('',*,*,#362,.F.);
#250=ORIENTED_EDGE('',*,*,#378,.F.);
#251=ORIENTED_EDGE('',*,*,#358,.F.);
#252=ORIENTED_EDGE('',*,*,#388,.F.);
#253=ORIENTED_EDGE('',*,*,#324,.F.);
#254=ORIENTED_EDGE('',*,*,#355,.F.);
#255=ORIENTED_EDGE('',*,*,#389,.T.);
#256=ORIENTED_EDGE('',*,*,#327,.F.);
#257=ORIENTED_EDGE('',*,*,#326,.F.);
#258=ORIENTED_EDGE('',*,*,#387,.F.);
#259=ORIENTED_EDGE('',*,*,#356,.F.);
#260=ORIENTED_EDGE('',*,*,#334,.F.);
#261=ORIENTED_EDGE('',*,*,#390,.T.);
#262=ORIENTED_EDGE('',*,*,#348,.F.);
#263=ORIENTED_EDGE('',*,*,#347,.F.);
#264=ORIENTED_EDGE('',*,*,#385,.F.);
#265=ORIENTED_EDGE('',*,*,#335,.F.);
#266=ORIENTED_EDGE('',*,*,#328,.F.);
#267=ORIENTED_EDGE('',*,*,#389,.F.);
#268=ORIENTED_EDGE('',*,*,#354,.F.);
#269=ORIENTED_EDGE('',*,*,#373,.F.);
#270=ORIENTED_EDGE('',*,*,#349,.F.);
#271=ORIENTED_EDGE('',*,*,#390,.F.);
#272=ORIENTED_EDGE('',*,*,#333,.F.);
#273=ORIENTED_EDGE('',*,*,#375,.F.);
#274=ORIENTED_EDGE('',*,*,#351,.F.);
#275=ORIENTED_EDGE('',*,*,#376,.F.);
#276=ORIENTED_EDGE('',*,*,#331,.F.);
#277=ORIENTED_EDGE('',*,*,#318,.F.);
#278=ORIENTED_EDGE('',*,*,#352,.F.);
#279=ORIENTED_EDGE('',*,*,#320,.F.);
#280=ORIENTED_EDGE('',*,*,#330,.F.);
#281=ORIENTED_EDGE('',*,*,#374,.F.);
#282=ORIENTED_EDGE('',*,*,#363,.F.);
#283=ORIENTED_EDGE('',*,*,#316,.F.);
#284=ORIENTED_EDGE('',*,*,#391,.F.);
#285=ORIENTED_EDGE('',*,*,#322,.F.);
#286=ORIENTED_EDGE('',*,*,#392,.F.);
#287=ORIENTED_EDGE('',*,*,#370,.F.);
#288=ORIENTED_EDGE('',*,*,#392,.T.);
#289=ORIENTED_EDGE('',*,*,#381,.F.);
#290=ORIENTED_EDGE('',*,*,#393,.F.);
#291=ORIENTED_EDGE('',*,*,#371,.F.);
#292=ORIENTED_EDGE('',*,*,#391,.T.);
#293=ORIENTED_EDGE('',*,*,#369,.F.);
#294=ORIENTED_EDGE('',*,*,#394,.F.);
#295=ORIENTED_EDGE('',*,*,#379,.F.);
#296=ORIENTED_EDGE('',*,*,#393,.T.);
#297=ORIENTED_EDGE('',*,*,#339,.F.);
#298=ORIENTED_EDGE('',*,*,#395,.F.);
#299=ORIENTED_EDGE('',*,*,#372,.F.);
#300=ORIENTED_EDGE('',*,*,#394,.T.);
#301=ORIENTED_EDGE('',*,*,#368,.F.);
#302=ORIENTED_EDGE('',*,*,#396,.F.);
#303=ORIENTED_EDGE('',*,*,#360,.F.);
#304=ORIENTED_EDGE('',*,*,#395,.T.);
#305=ORIENTED_EDGE('',*,*,#383,.F.);
#306=ORIENTED_EDGE('',*,*,#397,.F.);
#307=ORIENTED_EDGE('',*,*,#365,.F.);
#308=ORIENTED_EDGE('',*,*,#396,.T.);
#309=ORIENTED_EDGE('',*,*,#367,.F.);
#310=ORIENTED_EDGE('',*,*,#398,.F.);
#311=ORIENTED_EDGE('',*,*,#377,.F.);
#312=ORIENTED_EDGE('',*,*,#397,.T.);
#313=ORIENTED_EDGE('',*,*,#343,.F.);
#314=ORIENTED_EDGE('',*,*,#398,.T.);
#315=ORIENTED_EDGE('',*,*,#366,.F.);
#316=EDGE_CURVE('',#399,#399,#454,.T.);
#317=EDGE_CURVE('',#400,#401,#30,.T.);
#318=EDGE_CURVE('',#400,#402,#31,.T.);
#319=EDGE_CURVE('',#402,#403,#32,.T.);
#320=EDGE_CURVE('',#403,#401,#33,.F.);
#321=EDGE_CURVE('',#404,#405,#34,.T.);
#322=EDGE_CURVE('',#405,#406,#35,.T.);
#323=EDGE_CURVE('',#406,#407,#36,.F.);
#324=EDGE_CURVE('',#407,#408,#37,.T.);
#325=EDGE_CURVE('',#408,#409,#38,.T.);
#326=EDGE_CURVE('',#409,#410,#39,.T.);
#327=EDGE_CURVE('',#410,#411,#40,.F.);
#328=EDGE_CURVE('',#411,#412,#455,.T.);
#329=EDGE_CURVE('',#412,#413,#41,.T.);
#330=EDGE_CURVE('',#413,#403,#456,.T.);
#331=EDGE_CURVE('',#402,#414,#457,.T.);
#332=EDGE_CURVE('',#415,#414,#42,.T.);
#333=EDGE_CURVE('',#415,#416,#458,.T.);
#334=EDGE_CURVE('',#416,#417,#43,.T.);
#335=EDGE_CURVE('',#417,#418,#44,.F.);
#336=EDGE_CURVE('',#419,#418,#45,.T.);
#337=EDGE_CURVE('',#419,#404,#46,.T.);
#338=EDGE_CURVE('',#420,#421,#47,.T.);
#339=EDGE_CURVE('',#421,#422,#48,.T.);
#340=EDGE_CURVE('',#422,#423,#49,.F.);
#341=EDGE_CURVE('',#420,#423,#50,.T.);
#342=EDGE_CURVE('',#424,#425,#51,.T.);
#343=EDGE_CURVE('',#425,#426,#52,.T.);
#344=EDGE_CURVE('',#426,#427,#53,.F.);
#345=EDGE_CURVE('',#428,#427,#54,.T.);
#346=EDGE_CURVE('',#428,#429,#55,.T.);
#347=EDGE_CURVE('',#429,#430,#56,.F.);
#348=EDGE_CURVE('',#430,#431,#57,.T.);
#349=EDGE_CURVE('',#431,#432,#459,.F.);
#350=EDGE_CURVE('',#432,#433,#58,.T.);
#351=EDGE_CURVE('',#433,#400,#460,.F.);
#352=EDGE_CURVE('',#401,#434,#461,.F.);
#353=EDGE_CURVE('',#435,#434,#59,.T.);
#354=EDGE_CURVE('',#435,#436,#462,.F.);
#355=EDGE_CURVE('',#436,#437,#60,.F.);
#356=EDGE_CURVE('',#437,#438,#61,.T.);
#357=EDGE_CURVE('',#439,#438,#62,.T.);
#358=EDGE_CURVE('',#439,#424,#63,.T.);
#359=EDGE_CURVE('',#440,#441,#64,.T.);
#360=EDGE_CURVE('',#441,#442,#65,.T.);
#361=EDGE_CURVE('',#442,#443,#66,.F.);
#362=EDGE_CURVE('',#443,#440,#67,.T.);
#363=EDGE_CURVE('',#444,#444,#463,.F.);
#364=EDGE_CURVE('',#445,#445,#464,.T.);
#365=EDGE_CURVE('',#446,#447,#465,.T.);
#366=EDGE_CURVE('',#447,#448,#68,.T.);
#367=EDGE_CURVE('',#448,#449,#466,.T.);
#368=EDGE_CURVE('',#449,#450,#69,.T.);
#369=EDGE_CURVE('',#450,#451,#467,.T.);
#370=EDGE_CURVE('',#451,#452,#70,.T.);
#371=EDGE_CURVE('',#452,#453,#468,.T.);
#372=EDGE_CURVE('',#453,#446,#71,.T.);
#373=EDGE_CURVE('',#412,#435,#72,.T.);
#374=EDGE_CURVE('',#434,#413,#73,.T.);
#375=EDGE_CURVE('',#432,#415,#74,.F.);
#376=EDGE_CURVE('',#414,#433,#75,.F.);
#377=EDGE_CURVE('',#442,#425,#469,.F.);
#378=EDGE_CURVE('',#424,#443,#470,.T.);
#379=EDGE_CURVE('',#406,#441,#471,.F.);
#380=EDGE_CURVE('',#440,#407,#472,.T.);
#381=EDGE_CURVE('',#422,#405,#473,.F.);
#382=EDGE_CURVE('',#423,#404,#474,.T.);
#383=EDGE_CURVE('',#426,#421,#475,.F.);
#384=EDGE_CURVE('',#427,#420,#476,.T.);
#385=EDGE_CURVE('',#418,#429,#76,.T.);
#386=EDGE_CURVE('',#419,#428,#77,.T.);
#387=EDGE_CURVE('',#438,#409,#78,.T.);
#388=EDGE_CURVE('',#408,#439,#79,.T.);
#389=EDGE_CURVE('',#436,#411,#80,.F.);
#390=EDGE_CURVE('',#416,#431,#81,.F.);
#391=EDGE_CURVE('',#406,#451,#82,.T.);
#392=EDGE_CURVE('',#452,#405,#83,.T.);
#393=EDGE_CURVE('',#453,#422,#84,.T.);
#394=EDGE_CURVE('',#441,#450,#85,.T.);
#395=EDGE_CURVE('',#446,#421,#86,.T.);
#396=EDGE_CURVE('',#442,#449,#87,.T.);
#397=EDGE_CURVE('',#447,#426,#88,.T.);
#398=EDGE_CURVE('',#425,#448,#89,.T.);
#399=VERTEX_POINT('',#847);
#400=VERTEX_POINT('',#849);
#401=VERTEX_POINT('',#850);
#402=VERTEX_POINT('',#852);
#403=VERTEX_POINT('',#854);
#404=VERTEX_POINT('',#858);
#405=VERTEX_POINT('',#859);
#406=VERTEX_POINT('',#861);
#407=VERTEX_POINT('',#863);
#408=VERTEX_POINT('',#865);
#409=VERTEX_POINT('',#867);
#410=VERTEX_POINT('',#869);
#411=VERTEX_POINT('',#871);
#412=VERTEX_POINT('',#873);
#413=VERTEX_POINT('',#875);
#414=VERTEX_POINT('',#878);
#415=VERTEX_POINT('',#880);
#416=VERTEX_POINT('',#882);
#417=VERTEX_POINT('',#884);
#418=VERTEX_POINT('',#886);
#419=VERTEX_POINT('',#888);
#420=VERTEX_POINT('',#892);
#421=VERTEX_POINT('',#893);
#422=VERTEX_POINT('',#895);
#423=VERTEX_POINT('',#897);
#424=VERTEX_POINT('',#901);
#425=VERTEX_POINT('',#902);
#426=VERTEX_POINT('',#904);
#427=VERTEX_POINT('',#906);
#428=VERTEX_POINT('',#908);
#429=VERTEX_POINT('',#910);
#430=VERTEX_POINT('',#912);
#431=VERTEX_POINT('',#914);
#432=VERTEX_POINT('',#916);
#433=VERTEX_POINT('',#918);
#434=VERTEX_POINT('',#921);
#435=VERTEX_POINT('',#923);
#436=VERTEX_POINT('',#925);
#437=VERTEX_POINT('',#927);
#438=VERTEX_POINT('',#929);
#439=VERTEX_POINT('',#931);
#440=VERTEX_POINT('',#935);
#441=VERTEX_POINT('',#936);
#442=VERTEX_POINT('',#938);
#443=VERTEX_POINT('',#940);
#444=VERTEX_POINT('',#944);
#445=VERTEX_POINT('',#946);
#446=VERTEX_POINT('',#949);
#447=VERTEX_POINT('',#950);
#448=VERTEX_POINT('',#952);
#449=VERTEX_POINT('',#954);
#450=VERTEX_POINT('',#956);
#451=VERTEX_POINT('',#958);
#452=VERTEX_POINT('',#960);
#453=VERTEX_POINT('',#962);
#454=CIRCLE('',#615,0.00475);
#455=CIRCLE('',#617,0.002);
#456=CIRCLE('',#618,0.002);
#457=CIRCLE('',#619,0.002);
#458=CIRCLE('',#620,0.002);
#459=CIRCLE('',#623,0.002);
#460=CIRCLE('',#624,0.002);
#461=CIRCLE('',#625,0.002);
#462=CIRCLE('',#626,0.002);
#463=CIRCLE('',#629,0.00275);
#464=CIRCLE('',#630,0.00275);
#465=CIRCLE('',#632,0.0024);
#466=CIRCLE('',#633,0.0024);
#467=CIRCLE('',#634,0.0024);
#468=CIRCLE('',#635,0.0024);
#469=CIRCLE('',#639,0.003);
#470=CIRCLE('',#640,0.003);
#471=CIRCLE('',#642,0.003);
#472=CIRCLE('',#643,0.003);
#473=CIRCLE('',#645,0.003);
#474=CIRCLE('',#646,0.003);
#475=CIRCLE('',#648,0.003);
#476=CIRCLE('',#649,0.003);
#477=EDGE_LOOP('',(#150));
#478=EDGE_LOOP('',(#151,#152,#153,#154));
#479=EDGE_LOOP('',(#155,#156,#157,#158,#159,#160,#161,#162,#163,#164,#165,#166,#167,#168,#169,#170,#171,#172));
#480=EDGE_LOOP('',(#173,#174,#175,#176));
#481=EDGE_LOOP('',(#177,#178,#179,#180,#181,#182,#183,#184,#185,#186,#187,#188,#189,#190,#191,#192,#193,#194));
#482=EDGE_LOOP('',(#195,#196,#197,#198));
#483=EDGE_LOOP('',(#199));
#484=EDGE_LOOP('',(#200));
#485=EDGE_LOOP('',(#201,#202,#203,#204,#205,#206,#207,#208));
#486=EDGE_LOOP('',(#209));
#487=EDGE_LOOP('',(#210,#211,#212,#213));
#488=EDGE_LOOP('',(#214,#215,#216,#217));
#489=EDGE_LOOP('',(#218,#219,#220,#221));
#490=EDGE_LOOP('',(#222,#223,#224,#225));
#491=EDGE_LOOP('',(#226,#227,#228,#229));
#492=EDGE_LOOP('',(#230,#231,#232,#233));
#493=EDGE_LOOP('',(#234,#235,#236,#237));
#494=EDGE_LOOP('',(#238,#239,#240,#241,#242,#243));
#495=EDGE_LOOP('',(#244,#245,#246,#247));
#496=EDGE_LOOP('',(#248,#249,#250,#251,#252,#253));
#497=EDGE_LOOP('',(#254,#255,#256,#257,#258,#259));
#498=EDGE_LOOP('',(#260,#261,#262,#263,#264,#265));
#499=EDGE_LOOP('',(#266,#267,#268,#269));
#500=EDGE_LOOP('',(#270,#271,#272,#273));
#501=EDGE_LOOP('',(#274,#275,#276,#277));
#502=EDGE_LOOP('',(#278,#279,#280,#281));
#503=EDGE_LOOP('',(#282));
#504=EDGE_LOOP('',(#283));
#505=EDGE_LOOP('',(#284,#285,#286,#287));
#506=EDGE_LOOP('',(#288,#289,#290,#291));
#507=EDGE_LOOP('',(#292,#293,#294,#295));
#508=EDGE_LOOP('',(#296,#297,#298,#299));
#509=EDGE_LOOP('',(#300,#301,#302,#303));
#510=EDGE_LOOP('',(#304,#305,#306,#307));
#511=EDGE_LOOP('',(#308,#309,#310,#311));
#512=EDGE_LOOP('',(#312,#313,#314,#315));
#513=FACE_BOUND('',#477,.T.);
#514=FACE_BOUND('',#478,.T.);
#515=FACE_BOUND('',#479,.T.);
#516=FACE_BOUND('',#480,.T.);
#517=FACE_BOUND('',#481,.T.);
#518=FACE_BOUND('',#482,.T.);
#519=FACE_BOUND('',#483,.T.);
#520=FACE_BOUND('',#484,.T.);
#521=FACE_BOUND('',#485,.T.);
#522=FACE_BOUND('',#486,.T.);
#523=FACE_BOUND('',#487,.T.);
#524=FACE_BOUND('',#488,.T.);
#525=FACE_BOUND('',#489,.T.);
#526=FACE_BOUND('',#490,.T.);
#527=FACE_BOUND('',#491,.T.);
#528=FACE_BOUND('',#492,.T.);
#529=FACE_BOUND('',#493,.T.);
#530=FACE_BOUND('',#494,.T.);
#531=FACE_BOUND('',#495,.T.);
#532=FACE_BOUND('',#496,.T.);
#533=FACE_BOUND('',#497,.T.);
#534=FACE_BOUND('',#498,.T.);
#535=FACE_BOUND('',#499,.T.);
#536=FACE_BOUND('',#500,.T.);
#537=FACE_BOUND('',#501,.T.);
#538=FACE_BOUND('',#502,.T.);
#539=FACE_BOUND('',#503,.T.);
#540=FACE_BOUND('',#504,.T.);
#541=FACE_BOUND('',#505,.T.);
#542=FACE_BOUND('',#506,.T.);
#543=FACE_BOUND('',#507,.T.);
#544=FACE_BOUND('',#508,.T.);
#545=FACE_BOUND('',#509,.T.);
#546=FACE_BOUND('',#510,.T.);
#547=FACE_BOUND('',#511,.T.);
#548=FACE_BOUND('',#512,.T.);
#549=PLANE('',#614);
#550=PLANE('',#616);
#551=PLANE('',#621);
#552=PLANE('',#622);
#553=PLANE('',#627);
#554=PLANE('',#631);
#555=PLANE('',#636);
#556=PLANE('',#637);
#557=PLANE('',#650);
#558=PLANE('',#651);
#559=PLANE('',#652);
#560=PLANE('',#653);
#561=PLANE('',#654);
#562=PLANE('',#655);
#563=PLANE('',#661);
#564=PLANE('',#664);
#565=PLANE('',#665);
#566=PLANE('',#668);
#567=ADVANCED_FACE('',(#513,#514),#549,.F.);
#568=ADVANCED_FACE('',(#515),#550,.F.);
#569=ADVANCED_FACE('',(#516),#551,.T.);
#570=ADVANCED_FACE('',(#517),#552,.T.);
#571=ADVANCED_FACE('',(#518),#553,.F.);
#572=ADVANCED_FACE('',(#519,#520),#21,.F.);
#573=ADVANCED_FACE('',(#521,#522),#554,.T.);
#574=ADVANCED_FACE('',(#523),#555,.F.);
#575=ADVANCED_FACE('',(#524),#556,.T.);
#576=ADVANCED_FACE('',(#525),#22,.T.);
#577=ADVANCED_FACE('',(#526),#23,.T.);
#578=ADVANCED_FACE('',(#527),#24,.T.);
#579=ADVANCED_FACE('',(#528),#25,.T.);
#580=ADVANCED_FACE('',(#529),#557,.F.);
#581=ADVANCED_FACE('',(#530),#558,.T.);
#582=ADVANCED_FACE('',(#531),#559,.T.);
#583=ADVANCED_FACE('',(#532),#560,.T.);
#584=ADVANCED_FACE('',(#533),#561,.T.);
#585=ADVANCED_FACE('',(#534),#562,.F.);
#586=ADVANCED_FACE('',(#535),#26,.F.);
#587=ADVANCED_FACE('',(#536),#27,.F.);
#588=ADVANCED_FACE('',(#537),#28,.F.);
#589=ADVANCED_FACE('',(#538),#29,.F.);
#590=ADVANCED_FACE('',(#539,#540),#16,.F.);
#591=ADVANCED_FACE('',(#541),#563,.T.);
#592=ADVANCED_FACE('',(#542),#17,.T.);
#593=ADVANCED_FACE('',(#543),#18,.T.);
#594=ADVANCED_FACE('',(#544),#564,.F.);
#595=ADVANCED_FACE('',(#545),#565,.T.);
#596=ADVANCED_FACE('',(#546),#19,.T.);
#597=ADVANCED_FACE('',(#547),#20,.T.);
#598=ADVANCED_FACE('',(#548),#566,.F.);
#599=CLOSED_SHELL('',(#567,#568,#569,#570,#571,#572,#573,#574,#575,#576,#577,#578,#579,#580,#581,#582,#583,#584,#585,#586,#587,#588,#589,#590,#591,#592,#593,#594,#595,#596,#597,#598));
#600=STYLED_ITEM('',(#601),#608);
#601=PRESENTATION_STYLE_ASSIGNMENT((#602));
#602=SURFACE_STYLE_USAGE(.BOTH.,#603);
#603=SURFACE_SIDE_STYLE('',(#604));
#604=SURFACE_STYLE_FILL_AREA(#605);
#605=FILL_AREA_STYLE('',(#606));
#606=FILL_AREA_STYLE_COLOUR('',#607);
#607=COLOUR_RGB('',0.768627450980392,0.886274509803922,0.952941176470588);
#608=MANIFOLD_SOLID_BREP('Part 5',#599);
#609=SHAPE_DEFINITION_REPRESENTATION(#1024,#611);
#610=SHAPE_DEFINITION_REPRESENTATION(#1025,#612);
#611=SHAPE_REPRESENTATION('Screw Mount',(#613,#669),#1017);
#612=SHAPE_REPRESENTATION('Part 5',(#613),#1018);
#613=AXIS2_PLACEMENT_3D('',#844,#670,#671);
#614=AXIS2_PLACEMENT_3D('',#845,#672,#673);
#615=AXIS2_PLACEMENT_3D('',#846,#674,#675);
#616=AXIS2_PLACEMENT_3D('',#856,#680,#681);
#617=AXIS2_PLACEMENT_3D('',#872,#689,#690);
#618=AXIS2_PLACEMENT_3D('',#876,#692,#693);
#619=AXIS2_PLACEMENT_3D('',#877,#694,#695);
#620=AXIS2_PLACEMENT_3D('',#881,#697,#698);
#621=AXIS2_PLACEMENT_3D('',#890,#703,#704);
#622=AXIS2_PLACEMENT_3D('',#899,#709,#710);
#623=AXIS2_PLACEMENT_3D('',#915,#718,#719);
#624=AXIS2_PLACEMENT_3D('',#919,#721,#722);
#625=AXIS2_PLACEMENT_3D('',#920,#723,#724);
#626=AXIS2_PLACEMENT_3D('',#924,#726,#727);
#627=AXIS2_PLACEMENT_3D('',#933,#732,#733);
#628=AXIS2_PLACEMENT_3D('',#942,#738,#739);
#629=AXIS2_PLACEMENT_3D('',#943,#740,#741);
#630=AXIS2_PLACEMENT_3D('',#945,#742,#743);
#631=AXIS2_PLACEMENT_3D('',#947,#744,#745);
#632=AXIS2_PLACEMENT_3D('',#948,#746,#747);
#633=AXIS2_PLACEMENT_3D('',#953,#749,#750);
#634=AXIS2_PLACEMENT_3D('',#957,#752,#753);
#635=AXIS2_PLACEMENT_3D('',#961,#755,#756);
#636=AXIS2_PLACEMENT_3D('',#964,#758,#759);
#637=AXIS2_PLACEMENT_3D('',#967,#762,#763);
#638=AXIS2_PLACEMENT_3D('',#970,#766,#767);
#639=AXIS2_PLACEMENT_3D('',#971,#768,#769);
#640=AXIS2_PLACEMENT_3D('',#972,#770,#771);
#641=AXIS2_PLACEMENT_3D('',#973,#772,#773);
#642=AXIS2_PLACEMENT_3D('',#974,#774,#775);
#643=AXIS2_PLACEMENT_3D('',#975,#776,#777);
#644=AXIS2_PLACEMENT_3D('',#976,#778,#779);
#645=AXIS2_PLACEMENT_3D('',#977,#780,#781);
#646=AXIS2_PLACEMENT_3D('',#978,#782,#783);
#647=AXIS2_PLACEMENT_3D('',#979,#784,#785);
#648=AXIS2_PLACEMENT_3D('',#980,#786,#787);
#649=AXIS2_PLACEMENT_3D('',#981,#788,#789);
#650=AXIS2_PLACEMENT_3D('',#982,#790,#791);
#651=AXIS2_PLACEMENT_3D('',#985,#794,#795);
#652=AXIS2_PLACEMENT_3D('',#986,#796,#797);
#653=AXIS2_PLACEMENT_3D('',#989,#800,#801);
#654=AXIS2_PLACEMENT_3D('',#990,#802,#803);
#655=AXIS2_PLACEMENT_3D('',#992,#805,#806);
#656=AXIS2_PLACEMENT_3D('',#994,#808,#809);
#657=AXIS2_PLACEMENT_3D('',#995,#810,#811);
#658=AXIS2_PLACEMENT_3D('',#996,#812,#813);
#659=AXIS2_PLACEMENT_3D('',#997,#814,#815);
#660=AXIS2_PLACEMENT_3D('',#998,#816,#817);
#661=AXIS2_PLACEMENT_3D('',#999,#818,#819);
#662=AXIS2_PLACEMENT_3D('',#1002,#822,#823);
#663=AXIS2_PLACEMENT_3D('',#1004,#825,#826);
#664=AXIS2_PLACEMENT_3D('',#1006,#828,#829);
#665=AXIS2_PLACEMENT_3D('',#1008,#831,#832);
#666=AXIS2_PLACEMENT_3D('',#1010,#834,#835);
#667=AXIS2_PLACEMENT_3D('',#1012,#837,#838);
#668=AXIS2_PLACEMENT_3D('',#1014,#840,#841);
#669=AXIS2_PLACEMENT_3D('',#1015,#842,#843);
#670=DIRECTION('',(0.,0.,1.));
#671=DIRECTION('',(1.,0.,0.));
#672=DIRECTION('',(-1.,0.,0.));
#673=DIRECTION('',(0.,-1.,0.));
#674=DIRECTION('',(-1.,0.,0.));
#675=DIRECTION('',(0.,0.,1.));
#676=DIRECTION('',(0.,-7.9757401194336E-16,-1.));
#677=DIRECTION('',(0.,-1.,0.));
#678=DIRECTION('',(0.,-7.9757401194336E-16,-1.));
#679=DIRECTION('',(0.,-1.,1.98254111540206E-16));
#680=DIRECTION('',(0.,1.,-7.9757401194336E-16));
#681=DIRECTION('',(0.,7.9757401194336E-16,1.));
#682=DIRECTION('',(-1.,0.,0.));
#683=DIRECTION('',(0.,-7.9757401194336E-16,-1.));
#684=DIRECTION('',(-1.,0.,0.));
#685=DIRECTION('',(0.,-1.5419764230905E-15,1.));
#686=DIRECTION('',(-1.,0.,0.));
#687=DIRECTION('',(-0.707106781186547,-5.63969992343311E-16,-0.707106781186548));
#688=DIRECTION('',(0.707106781186547,5.6396999234331E-16,0.707106781186548));
#689=DIRECTION('',(0.,1.,-7.9757401194336E-16));
#690=DIRECTION('',(0.,7.9757401194336E-16,1.));
#691=DIRECTION('',(-1.,0.,0.));
#692=DIRECTION('',(0.,1.,-7.9757401194336E-16));
#693=DIRECTION('',(0.,7.9757401194336E-16,1.));
#694=DIRECTION('',(0.,1.,-7.9757401194336E-16));
#695=DIRECTION('',(0.,7.9757401194336E-16,1.));
#696=DIRECTION('',(-1.,0.,0.));
#697=DIRECTION('',(0.,1.,-7.9757401194336E-16));
#698=DIRECTION('',(0.,7.9757401194336E-16,1.));
#699=DIRECTION('',(0.707106781186548,-5.6396999234331E-16,-0.707106781186548));
#700=DIRECTION('',(-0.707106781186548,5.6396999234331E-16,0.707106781186548));
#701=DIRECTION('',(-1.,0.,0.));
#702=DIRECTION('',(0.,2.56996070515082E-15,1.));
#703=DIRECTION('',(0.,1.98254111540206E-16,1.));
#704=DIRECTION('',(0.,-1.,1.98254111540206E-16));
#705=DIRECTION('',(-1.,0.,0.));
#706=DIRECTION('',(0.,-1.,1.98254111540206E-16));
#707=DIRECTION('',(-1.,0.,0.));
#708=DIRECTION('',(0.,-1.,2.39272203583008E-16));
#709=DIRECTION('',(0.,1.,-7.9757401194336E-16));
#710=DIRECTION('',(0.,7.9757401194336E-16,1.));
#711=DIRECTION('',(-1.,0.,0.));
#712=DIRECTION('',(0.,7.9757401194336E-16,1.));
#713=DIRECTION('',(-1.,0.,0.));
#714=DIRECTION('',(0.,0.,1.));
#715=DIRECTION('',(-1.,0.,0.));
#716=DIRECTION('',(0.707106781186548,-5.6396999234331E-16,-0.707106781186548));
#717=DIRECTION('',(-0.707106781186548,5.6396999234331E-16,0.707106781186548));
#718=DIRECTION('',(0.,1.,-7.9757401194336E-16));
#719=DIRECTION('',(0.,7.9757401194336E-16,1.));
#720=DIRECTION('',(-1.,0.,0.));
#721=DIRECTION('',(0.,1.,-7.9757401194336E-16));
#722=DIRECTION('',(0.,7.9757401194336E-16,1.));
#723=DIRECTION('',(0.,1.,-7.9757401194336E-16));
#724=DIRECTION('',(0.,7.9757401194336E-16,1.));
#725=DIRECTION('',(-1.,0.,0.));
#726=DIRECTION('',(0.,1.,-7.9757401194336E-16));
#727=DIRECTION('',(0.,7.9757401194336E-16,1.));
#728=DIRECTION('',(-0.707106781186547,-5.63969992343311E-16,-0.707106781186548));
#729=DIRECTION('',(0.707106781186547,5.63969992343311E-16,0.707106781186548));
#730=DIRECTION('',(-1.,0.,0.));
#731=DIRECTION('',(0.,0.,-1.));
#732=DIRECTION('',(0.,1.98254111540206E-16,1.));
#733=DIRECTION('',(0.,-1.,1.98254111540206E-16));
#734=DIRECTION('',(-1.,0.,0.));
#735=DIRECTION('',(0.,1.,-1.98254111540206E-16));
#736=DIRECTION('',(-1.,0.,0.));
#737=DIRECTION('',(0.,-1.,-2.39272203583008E-16));
#738=DIRECTION('',(-1.,0.,0.));
#739=DIRECTION('',(0.,0.,1.));
#740=DIRECTION('',(-1.,0.,0.));
#741=DIRECTION('',(0.,0.,1.));
#742=DIRECTION('',(-1.,0.,0.));
#743=DIRECTION('',(0.,0.,1.));
#744=DIRECTION('',(-1.,0.,0.));
#745=DIRECTION('',(0.,-1.,0.));
#746=DIRECTION('',(-1.,0.,0.));
#747=DIRECTION('',(0.,0.,1.));
#748=DIRECTION('',(0.,-7.9757401194336E-16,-1.));
#749=DIRECTION('',(-1.,0.,0.));
#750=DIRECTION('',(0.,0.,1.));
#751=DIRECTION('',(0.,-1.,1.98254111540206E-16));
#752=DIRECTION('',(-1.,0.,0.));
#753=DIRECTION('',(0.,0.,1.));
#754=DIRECTION('',(0.,7.9757401194336E-16,1.));
#755=DIRECTION('',(-1.,0.,0.));
#756=DIRECTION('',(0.,0.,1.));
#757=DIRECTION('',(0.,1.,-1.98254111540206E-16));
#758=DIRECTION('',(0.,-1.98254111540206E-16,-1.));
#759=DIRECTION('',(0.,1.,-1.98254111540206E-16));
#760=DIRECTION('',(-1.98254111540206E-16,1.,-1.98254111540206E-16));
#761=DIRECTION('',(0.,-1.,1.98254111540206E-16));
#762=DIRECTION('',(0.,0.,-1.));
#763=DIRECTION('',(-1.,0.,0.));
#764=DIRECTION('',(0.,1.,0.));
#765=DIRECTION('',(0.,-1.,0.));
#766=DIRECTION('',(1.,0.,0.));
#767=DIRECTION('',(0.,0.,-1.));
#768=DIRECTION('',(-1.,0.,0.));
#769=DIRECTION('',(0.,0.,1.));
#770=DIRECTION('',(-1.,0.,0.));
#771=DIRECTION('',(0.,0.,-1.));
#772=DIRECTION('',(-1.,0.,0.));
#773=DIRECTION('',(0.,0.,1.));
#774=DIRECTION('',(-1.,0.,0.));
#775=DIRECTION('',(0.,0.,1.));
#776=DIRECTION('',(-1.,0.,0.));
#777=DIRECTION('',(0.,0.,-1.));
#778=DIRECTION('',(1.,0.,0.));
#779=DIRECTION('',(0.,0.,-1.));
#780=DIRECTION('',(-1.,0.,0.));
#781=DIRECTION('',(0.,0.,1.));
#782=DIRECTION('',(1.,0.,0.));
#783=DIRECTION('',(0.,0.,-1.));
#784=DIRECTION('',(-1.,0.,0.));
#785=DIRECTION('',(0.,0.,1.));
#786=DIRECTION('',(-1.,0.,0.));
#787=DIRECTION('',(0.,0.,1.));
#788=DIRECTION('',(1.,0.,0.));
#789=DIRECTION('',(0.,0.,-1.));
#790=DIRECTION('',(0.,0.,1.));
#791=DIRECTION('',(1.,0.,0.));
#792=DIRECTION('',(0.,1.,0.));
#793=DIRECTION('',(0.,1.,0.));
#794=DIRECTION('',(1.,0.,0.));
#795=DIRECTION('',(0.,1.,0.));
#796=DIRECTION('',(0.,0.,1.));
#797=DIRECTION('',(1.,0.,0.));
#798=DIRECTION('',(0.,-1.,0.));
#799=DIRECTION('',(0.,1.,0.));
#800=DIRECTION('',(1.,0.,0.));
#801=DIRECTION('',(0.,1.,0.));
#802=DIRECTION('',(-0.707106781186548,0.,0.707106781186547));
#803=DIRECTION('',(0.,-1.,0.));
#804=DIRECTION('',(-1.98254111540206E-16,1.,-1.98254111540206E-16));
#805=DIRECTION('',(0.707106781186548,0.,0.707106781186548));
#806=DIRECTION('',(0.,1.,0.));
#807=DIRECTION('',(0.,-1.,0.));
#808=DIRECTION('',(-1.98254111540206E-16,1.,-1.98254111540206E-16));
#809=DIRECTION('',(0.,1.98254111540206E-16,1.));
#810=DIRECTION('',(0.,-1.,0.));
#811=DIRECTION('',(0.,0.,-1.));
#812=DIRECTION('',(0.,-1.,0.));
#813=DIRECTION('',(0.,0.,-1.));
#814=DIRECTION('',(0.,1.,-1.98254111540206E-16));
#815=DIRECTION('',(0.,1.98254111540206E-16,1.));
#816=DIRECTION('',(1.,0.,0.));
#817=DIRECTION('',(0.,0.,-1.));
#818=DIRECTION('',(-0.707106781186548,-0.707106781186547,5.6396999234331E-16));
#819=DIRECTION('',(0.,7.9757401194336E-16,1.));
#820=DIRECTION('',(-0.707106781186548,0.707106781186548,0.));
#821=DIRECTION('',(0.707106781186548,-0.707106781186548,0.));
#822=DIRECTION('',(1.,0.,0.));
#823=DIRECTION('',(0.,0.,-1.));
#824=DIRECTION('',(0.707106781186548,0.,0.707106781186548));
#825=DIRECTION('',(1.,0.,0.));
#826=DIRECTION('',(0.,0.,-1.));
#827=DIRECTION('',(-0.707106781186548,0.,0.707106781186548));
#828=DIRECTION('',(0.707106781186548,-1.40186826668194E-16,-0.707106781186548));
#829=DIRECTION('',(0.,1.,-1.98254111540206E-16));
#830=DIRECTION('',(0.707106781186548,0.,0.707106781186548));
#831=DIRECTION('',(-0.707106781186548,-1.40186826668194E-16,-0.707106781186548));
#832=DIRECTION('',(0.,-1.,1.98254111540206E-16));
#833=DIRECTION('',(-0.707106781186548,0.,0.707106781186548));
#834=DIRECTION('',(1.,0.,0.));
#835=DIRECTION('',(0.,0.,-1.));
#836=DIRECTION('',(0.707106781186548,0.707106781186548,0.));
#837=DIRECTION('',(1.,0.,0.));
#838=DIRECTION('',(0.,0.,-1.));
#839=DIRECTION('',(-0.707106781186548,-0.707106781186548,0.));
#840=DIRECTION('',(0.707106781186547,-0.707106781186548,5.63969992343311E-16));
#841=DIRECTION('',(0.,-7.9757401194336E-16,-1.));
#842=DIRECTION('',(0.,0.,1.));
#843=DIRECTION('',(1.,0.,0.));
#844=CARTESIAN_POINT('',(0.,0.,0.));
#845=CARTESIAN_POINT('',(-0.0134,-0.000582106781186545,-0.00475));
#846=CARTESIAN_POINT('',(-0.0134,-0.000582106781186545,-0.00475));
#847=CARTESIAN_POINT('',(-0.0134,-0.000582106781186545,0.));
#848=CARTESIAN_POINT('',(-0.0134,0.0169178932188134,0.014075));
#849=CARTESIAN_POINT('',(-0.0134,0.0169178932188134,0.0099));
#850=CARTESIAN_POINT('',(-0.0134,0.0169178932188134,-0.0194));
#851=CARTESIAN_POINT('',(-0.0134,-0.000582106781186545,0.0099));
#852=CARTESIAN_POINT('',(-0.0134,-0.0180821067811866,0.0099));
#853=CARTESIAN_POINT('',(-0.0134,-0.0180821067811866,0.014075));
#854=CARTESIAN_POINT('',(-0.0134,-0.0180821067811866,-0.0194));
#855=CARTESIAN_POINT('',(-0.0134,0.0169178932188134,-0.0194));
#856=CARTESIAN_POINT('',(-0.0134,-0.0180821067811866,0.014075));
#857=CARTESIAN_POINT('',(-0.0164,-0.0180821067811866,0.01325));
#858=CARTESIAN_POINT('',(0.0154,-0.0180821067811866,0.01325));
#859=CARTESIAN_POINT('',(-0.0158,-0.0180821067811866,0.01325));
#860=CARTESIAN_POINT('',(-0.0158,-0.0180821067811866,-0.02275));
#861=CARTESIAN_POINT('',(-0.0158,-0.0180821067811866,-0.02275));
#862=CARTESIAN_POINT('',(-0.0134,-0.0180821067811866,-0.02275));
#863=CARTESIAN_POINT('',(0.0154,-0.0180821067811866,-0.02275));
#864=CARTESIAN_POINT('',(0.0154,-0.0180821067811866,-0.020275));
#865=CARTESIAN_POINT('',(0.0154,-0.0180821067811866,-0.01915));
#866=CARTESIAN_POINT('',(0.0154,-0.0180821067811866,-0.01915));
#867=CARTESIAN_POINT('',(0.0144,-0.0180821067811866,-0.01915));
#868=CARTESIAN_POINT('',(0.0134,-0.0180821067811866,-0.02015));
#869=CARTESIAN_POINT('',(0.0134,-0.0180821067811866,-0.02015));
#870=CARTESIAN_POINT('',(0.0171125,-0.0180821067811866,-0.0164375));
#871=CARTESIAN_POINT('',(0.0127357864376269,-0.0180821067811866,-0.0208142135623731));
#872=CARTESIAN_POINT('',(0.0113215728752538,-0.0180821067811866,-0.0194));
#873=CARTESIAN_POINT('',(0.0113215728752538,-0.0180821067811866,-0.0214));
#874=CARTESIAN_POINT('',(0.013402,-0.0180821067811866,-0.0214));
#875=CARTESIAN_POINT('',(-0.0114,-0.0180821067811866,-0.0214));
#876=CARTESIAN_POINT('',(-0.0114,-0.0180821067811866,-0.0194));
#877=CARTESIAN_POINT('',(-0.0114,-0.0180821067811866,0.0099));
#878=CARTESIAN_POINT('',(-0.0114,-0.0180821067811866,0.0119));
#879=CARTESIAN_POINT('',(0.013402,-0.0180821067811866,0.0119));
#880=CARTESIAN_POINT('',(0.0113215728752538,-0.0180821067811866,0.0119));
#881=CARTESIAN_POINT('',(0.0113215728752538,-0.0180821067811866,0.0099));
#882=CARTESIAN_POINT('',(0.0127357864376269,-0.0180821067811866,0.0113142135623731));
#883=CARTESIAN_POINT('',(-0.0017125,-0.0180821067811866,0.0257625));
#884=CARTESIAN_POINT('',(0.0134,-0.0180821067811866,0.01065));
#885=CARTESIAN_POINT('',(0.0144,-0.0180821067811866,0.00965));
#886=CARTESIAN_POINT('',(0.0144,-0.0180821067811866,0.00965));
#887=CARTESIAN_POINT('',(0.0154,-0.0180821067811866,0.00965));
#888=CARTESIAN_POINT('',(0.0154,-0.0180821067811866,0.00965));
#889=CARTESIAN_POINT('',(0.0154,-0.0180821067811866,0.012575));
#890=CARTESIAN_POINT('',(-0.0134,-0.000582106781186538,0.01625));
#891=CARTESIAN_POINT('',(-0.0134,0.0139178932188135,0.01625));
#892=CARTESIAN_POINT('',(0.0154,0.0139178932188135,0.01625));
#893=CARTESIAN_POINT('',(-0.0158,0.0139178932188135,0.01625));
#894=CARTESIAN_POINT('',(-0.0158,-0.000582106781186538,0.01625));
#895=CARTESIAN_POINT('',(-0.0158,-0.0150821067811866,0.01625));
#896=CARTESIAN_POINT('',(0.0134,-0.0150821067811866,0.01625));
#897=CARTESIAN_POINT('',(0.0154,-0.0150821067811866,0.01625));
#898=CARTESIAN_POINT('',(0.0154,-0.000582106781186538,0.01625));
#899=CARTESIAN_POINT('',(-0.0134,0.0169178932188134,0.014075));
#900=CARTESIAN_POINT('',(-0.0164,0.0169178932188134,-0.02275));
#901=CARTESIAN_POINT('',(0.0154,0.0169178932188134,-0.02275));
#902=CARTESIAN_POINT('',(-0.0158,0.0169178932188134,-0.02275));
#903=CARTESIAN_POINT('',(-0.0158,0.0169178932188134,0.014075));
#904=CARTESIAN_POINT('',(-0.0158,0.0169178932188134,0.01325));
#905=CARTESIAN_POINT('',(-0.0134,0.0169178932188134,0.01325));
#906=CARTESIAN_POINT('',(0.0154,0.0169178932188134,0.01325));
#907=CARTESIAN_POINT('',(0.0154,0.0169178932188134,0.010775));
#908=CARTESIAN_POINT('',(0.0154,0.0169178932188134,0.00965));
#909=CARTESIAN_POINT('',(0.0154,0.0169178932188134,0.00965));
#910=CARTESIAN_POINT('',(0.0144,0.0169178932188134,0.00965));
#911=CARTESIAN_POINT('',(-0.0017125,0.0169178932188135,0.0257625));
#912=CARTESIAN_POINT('',(0.0134,0.0169178932188134,0.01065));
#913=CARTESIAN_POINT('',(0.0134,0.0169178932188134,0.01065));
#914=CARTESIAN_POINT('',(0.0127357864376269,0.0169178932188134,0.0113142135623731));
#915=CARTESIAN_POINT('',(0.0113215728752538,0.0169178932188134,0.0099));
#916=CARTESIAN_POINT('',(0.0113215728752538,0.0169178932188134,0.0119));
#917=CARTESIAN_POINT('',(0.013402,0.0169178932188134,0.0119));
#918=CARTESIAN_POINT('',(-0.0114,0.0169178932188134,0.0119));
#919=CARTESIAN_POINT('',(-0.0114,0.0169178932188134,0.0099));
#920=CARTESIAN_POINT('',(-0.0114,0.0169178932188134,-0.0194));
#921=CARTESIAN_POINT('',(-0.0114,0.0169178932188134,-0.0214));
#922=CARTESIAN_POINT('',(0.013402,0.0169178932188134,-0.0214));
#923=CARTESIAN_POINT('',(0.0113215728752538,0.0169178932188134,-0.0214));
#924=CARTESIAN_POINT('',(0.0113215728752538,0.0169178932188134,-0.0194));
#925=CARTESIAN_POINT('',(0.0127357864376269,0.0169178932188134,-0.0208142135623731));
#926=CARTESIAN_POINT('',(0.01215,0.0169178932188134,-0.0214));
#927=CARTESIAN_POINT('',(0.0134,0.0169178932188134,-0.02015));
#928=CARTESIAN_POINT('',(0.0171125,0.0169178932188134,-0.0164375));
#929=CARTESIAN_POINT('',(0.0144,0.0169178932188134,-0.01915));
#930=CARTESIAN_POINT('',(0.0154,0.0169178932188134,-0.01915));
#931=CARTESIAN_POINT('',(0.0154,0.0169178932188134,-0.01915));
#932=CARTESIAN_POINT('',(0.0154,0.0169178932188134,-0.022075));
#933=CARTESIAN_POINT('',(-0.0134,-0.000582106781186552,-0.02575));
#934=CARTESIAN_POINT('',(-0.0134,-0.0150821067811866,-0.02575));
#935=CARTESIAN_POINT('',(0.0154,-0.0150821067811866,-0.02575));
#936=CARTESIAN_POINT('',(-0.0158,-0.0150821067811866,-0.02575));
#937=CARTESIAN_POINT('',(-0.0158,0.0139178932188134,-0.02575));
#938=CARTESIAN_POINT('',(-0.0158,0.0139178932188134,-0.02575));
#939=CARTESIAN_POINT('',(0.0134,0.0139178932188134,-0.02575));
#940=CARTESIAN_POINT('',(0.0154,0.0139178932188135,-0.02575));
#941=CARTESIAN_POINT('',(0.0154,-0.000582106781186538,-0.02575));
#942=CARTESIAN_POINT('',(-0.0134,-0.000582106781186545,-0.00475));
#943=CARTESIAN_POINT('',(-0.0154,-0.000582106781186545,-0.00475));
#944=CARTESIAN_POINT('',(-0.0154,-0.000582106781186545,-0.002));
#945=CARTESIAN_POINT('',(-0.0164,-0.000582106781186545,-0.00475));
#946=CARTESIAN_POINT('',(-0.0164,-0.000582106781186545,-0.002));
#947=CARTESIAN_POINT('',(-0.0164,-0.000582106781186545,-0.00475));
#948=CARTESIAN_POINT('',(-0.0164,0.0139178932188135,0.01325));
#949=CARTESIAN_POINT('',(-0.0164,0.0139178932188135,0.01565));
#950=CARTESIAN_POINT('',(-0.0164,0.0163178932188134,0.01325));
#951=CARTESIAN_POINT('',(-0.0164,0.0163178932188134,-0.00475));
#952=CARTESIAN_POINT('',(-0.0164,0.0163178932188134,-0.02275));
#953=CARTESIAN_POINT('',(-0.0164,0.0139178932188134,-0.02275));
#954=CARTESIAN_POINT('',(-0.0164,0.0139178932188134,-0.02515));
#955=CARTESIAN_POINT('',(-0.0164,-0.0150821067811866,-0.02515));
#956=CARTESIAN_POINT('',(-0.0164,-0.0150821067811866,-0.02515));
#957=CARTESIAN_POINT('',(-0.0164,-0.0150821067811866,-0.02275));
#958=CARTESIAN_POINT('',(-0.0164,-0.0174821067811866,-0.02275));
#959=CARTESIAN_POINT('',(-0.0164,-0.0174821067811866,0.01325));
#960=CARTESIAN_POINT('',(-0.0164,-0.0174821067811866,0.01325));
#961=CARTESIAN_POINT('',(-0.0164,-0.0150821067811866,0.01325));
#962=CARTESIAN_POINT('',(-0.0164,-0.0150821067811866,0.01565));
#963=CARTESIAN_POINT('',(-0.0164,-0.000582106781186541,0.01565));
#964=CARTESIAN_POINT('',(0.013402,-0.000582106781186552,-0.0214));
#965=CARTESIAN_POINT('',(0.0113215728752538,-0.000582106781186552,-0.0214));
#966=CARTESIAN_POINT('',(-0.0114,-0.0180821067811866,-0.0214));
#967=CARTESIAN_POINT('',(0.013402,-0.000582106781186538,0.0119));
#968=CARTESIAN_POINT('',(0.0113215728752538,-0.0180821067811866,0.0119));
#969=CARTESIAN_POINT('',(-0.0114,-0.000582106781186538,0.0119));
#970=CARTESIAN_POINT('',(-0.0134,0.0139178932188134,-0.02275));
#971=CARTESIAN_POINT('',(-0.0158,0.0139178932188134,-0.02275));
#972=CARTESIAN_POINT('',(0.0154,0.0139178932188135,-0.02275));
#973=CARTESIAN_POINT('',(-0.0134,-0.0150821067811866,-0.02275));
#974=CARTESIAN_POINT('',(-0.0158,-0.0150821067811866,-0.02275));
#975=CARTESIAN_POINT('',(0.0154,-0.0150821067811866,-0.02275));
#976=CARTESIAN_POINT('',(-0.0134,-0.0150821067811866,0.01325));
#977=CARTESIAN_POINT('',(-0.0158,-0.0150821067811866,0.01325));
#978=CARTESIAN_POINT('',(0.0154,-0.0150821067811866,0.01325));
#979=CARTESIAN_POINT('',(-0.0134,0.0139178932188135,0.01325));
#980=CARTESIAN_POINT('',(-0.0158,0.0139178932188135,0.01325));
#981=CARTESIAN_POINT('',(0.0154,0.0139178932188135,0.01325));
#982=CARTESIAN_POINT('',(0.0154,-0.000582106781186545,0.00965));
#983=CARTESIAN_POINT('',(0.0144,-0.000582106781186545,0.00965));
#984=CARTESIAN_POINT('',(0.0154,-0.000582106781186545,0.00965));
#985=CARTESIAN_POINT('',(0.0154,-0.000733194872736931,-0.00475));
#986=CARTESIAN_POINT('',(0.0154,-0.000582106781186545,-0.01915));
#987=CARTESIAN_POINT('',(0.0144,-0.0180821067811866,-0.01915));
#988=CARTESIAN_POINT('',(0.0154,-0.000582106781186545,-0.01915));
#989=CARTESIAN_POINT('',(0.0154,-0.000733194872736931,-0.00475));
#990=CARTESIAN_POINT('',(0.0134,-0.000733194872736931,-0.02015));
#991=CARTESIAN_POINT('',(0.0127357864376269,-0.000733194872736931,-0.0208142135623731));
#992=CARTESIAN_POINT('',(0.0144,-0.000582106781186545,0.00965));
#993=CARTESIAN_POINT('',(0.0127357864376269,0.0169178932188134,0.0113142135623731));
#994=CARTESIAN_POINT('',(0.0113215728752538,-0.000582106781186552,-0.0194));
#995=CARTESIAN_POINT('',(0.0113215728752538,-0.000582106781186538,0.0099));
#996=CARTESIAN_POINT('',(-0.0114,-0.000582106781186545,0.0099));
#997=CARTESIAN_POINT('',(-0.0114,-0.000582106781186551,-0.0194));
#998=CARTESIAN_POINT('',(-0.0134,-0.000582106781186545,-0.00475));
#999=CARTESIAN_POINT('',(-0.0158,-0.0180821067811866,0.014075));
#1000=CARTESIAN_POINT('',(-0.0158,-0.0180821067811866,-0.02275));
#1001=CARTESIAN_POINT('',(-0.0164,-0.0174821067811866,0.01325));
#1002=CARTESIAN_POINT('',(-0.0164,-0.0150821067811866,0.01325));
#1003=CARTESIAN_POINT('',(-0.0164,-0.0150821067811866,0.01565));
#1004=CARTESIAN_POINT('',(-0.0164,-0.0150821067811866,-0.02275));
#1005=CARTESIAN_POINT('',(-0.0158,-0.0150821067811866,-0.02575));
#1006=CARTESIAN_POINT('',(-0.0164,-0.000582106781186541,0.01565));
#1007=CARTESIAN_POINT('',(-0.0164,0.0139178932188135,0.01565));
#1008=CARTESIAN_POINT('',(-0.0158,-0.000582106781186552,-0.02575));
#1009=CARTESIAN_POINT('',(-0.0158,0.0139178932188134,-0.02575));
#1010=CARTESIAN_POINT('',(-0.0164,0.0139178932188135,0.01325));
#1011=CARTESIAN_POINT('',(-0.0164,0.0163178932188134,0.01325));
#1012=CARTESIAN_POINT('',(-0.0164,0.0139178932188134,-0.02275));
#1013=CARTESIAN_POINT('',(-0.0158,0.0169178932188134,-0.02275));
#1014=CARTESIAN_POINT('',(-0.0164,0.0163178932188134,-0.00475));
#1015=CARTESIAN_POINT('',(0.,0.,0.));
#1016=MECHANICAL_DESIGN_GEOMETRIC_PRESENTATION_REPRESENTATION('',(#600),#1017);
#1017=(
GEOMETRIC_REPRESENTATION_CONTEXT(3)
GLOBAL_UNCERTAINTY_ASSIGNED_CONTEXT((#1019))
GLOBAL_UNIT_ASSIGNED_CONTEXT((#1023,#1022,#1021))
REPRESENTATION_CONTEXT('Screw Mount','TOP_LEVEL_ASSEMBLY_PART')
);
#1018=(
GEOMETRIC_REPRESENTATION_CONTEXT(3)
GLOBAL_UNCERTAINTY_ASSIGNED_CONTEXT((#1020))
GLOBAL_UNIT_ASSIGNED_CONTEXT((#1023,#1022,#1021))
REPRESENTATION_CONTEXT('Part 5','COMPONENT_PART')
);
#1019=UNCERTAINTY_MEASURE_WITH_UNIT(LENGTH_MEASURE(1.E-08),#1023,'DISTANCE_ACCURACY_VALUE','Maximum Tolerance applied to model');
#1020=UNCERTAINTY_MEASURE_WITH_UNIT(LENGTH_MEASURE(1.E-08),#1023,'DISTANCE_ACCURACY_VALUE','Maximum Tolerance applied to model');
#1021=(
NAMED_UNIT(*)
SI_UNIT($,.STERADIAN.)
SOLID_ANGLE_UNIT()
);
#1022=(
NAMED_UNIT(*)
PLANE_ANGLE_UNIT()
SI_UNIT($,.RADIAN.)
);
#1023=(
LENGTH_UNIT()
NAMED_UNIT(*)
SI_UNIT($,.METRE.)
);
#1024=PRODUCT_DEFINITION_SHAPE('','',#1027);
#1025=PRODUCT_DEFINITION_SHAPE('','',#1028);
#1026=PRODUCT_DEFINITION_SHAPE(' ','NAUO PRDDFN',#11);
#1027=PRODUCT_DEFINITION('','',#1031,#1029);
#1028=PRODUCT_DEFINITION('','',#1032,#1030);
#1029=PRODUCT_DEFINITION_CONTEXT('',#1042,'design');
#1030=PRODUCT_DEFINITION_CONTEXT('',#1042,'design');
#1031=PRODUCT_DEFINITION_FORMATION_WITH_SPECIFIED_SOURCE('','',#1035,.NOT_KNOWN.);
#1032=PRODUCT_DEFINITION_FORMATION_WITH_SPECIFIED_SOURCE('','',#1036,.NOT_KNOWN.);
#1033=PRODUCT_RELATED_PRODUCT_CATEGORY('','',(#1035));
#1034=PRODUCT_RELATED_PRODUCT_CATEGORY('','',(#1036));
#1035=PRODUCT('Screw Mount','Screw Mount','Screw Mount',(#1039));
#1036=PRODUCT('Part 5','Part 5','Part 5',(#1040));
#1037=PRODUCT_CATEGORY('','');
#1038=PRODUCT_CATEGORY('','');
#1039=PRODUCT_CONTEXT('',#1042,'mechanical');
#1040=PRODUCT_CONTEXT('',#1042,'mechanical');
#1041=APPLICATION_PROTOCOL_DEFINITION('international standard','ap242_managed_model_based_3d_engineering',2020,#1042);
#1042=APPLICATION_CONTEXT('managed model based 3d engineering');
ENDSEC;
END-ISO-10303-21;
